<?xml version="1.0" encoding="UTF-8"?>
<svg id="Camada_2" data-name="Camada 2" xmlns="http://www.w3.org/2000/svg" xmlns:xlink="http://www.w3.org/1999/xlink" viewBox="0 0 148.66 148.66">
  <defs>
    <style>
      .cls-1 {
        fill: url(#Gradiente_sem_nome_186);
      }

      .cls-2 {
        fill: #e9e9e9;
      }
    </style>
    <linearGradient id="Gradiente_sem_nome_186" data-name="Gradiente sem nome 186" x1="37.18" y1="101.89" x2="128.58" y2="35.48" gradientUnits="userSpaceOnUse">
      <stop offset=".1" stop-color="#9c8c6f"/>
      <stop offset=".7" stop-color="#9c8c6f" stop-opacity="0"/>
      <stop offset="1" stop-color="#9c8c6f" stop-opacity="0"/>
    </linearGradient>
  </defs>
  <g id="Camada_1-2" data-name="Camada 1">
    <g>
      <rect class="cls-2" width="148.66" height="148.66"/>
      <g>
        <path class="cls-1" d="M111.93,39.24h-59.38c3.1,2.04,5.59,4.31,7.59,6.75h-25.76c3.28,2.15,5.82,4.6,7.79,7.22h-19.33c22.31,14.64,0,46.71,0,46.71,6.98-3.17,13.49-4.4,19.2-4.6-3.65,8.31-7.67,14.1-7.67,14.1,7.12-3.23,13.88-4.98,20.1-5.78-1.17,1.92-1.93,3.02-1.93,3.02,3.18-1.45,6.3-2.61,9.33-3.54,17.03-.23,28.36,6.3,28.36,6.3,1.86-2.89,3.49-5.66,4.9-8.33,10.42,1.91,16.78,5.57,16.78,5.57,31.2-48.31,0-67.43,0-67.43Z"/>
        <path d="M126,58.73c-3.2-14.09-13.03-20.25-13.45-20.51-.19-.11-.4-.18-.62-.18h-59.38c-.53,0-.99.34-1.14.85-.15.5.05,1.05.49,1.33,2.1,1.38,3.93,2.91,5.55,4.58h-23.07c-.52,0-1,.33-1.14.83-.14.5.05,1.05.5,1.33,2.28,1.5,4.24,3.2,5.92,5.06h-16.83c-.52,0-.97.33-1.12.83-.17.52.05,1.05.48,1.33,4.89,3.23,7.91,7.58,8.96,12.99,2.8,14.47-9.15,31.88-9.29,32.07-.29.43-.26,1.02.07,1.43.24.29.57.43.93.43.14,0,.33-.02.48-.09,6.01-2.75,11.7-3.98,16.8-4.37-3.31,7.13-6.65,12.01-6.72,12.11-.31.43-.29,1.02.07,1.43.21.29.57.43.9.43.17,0,.33-.02.5-.09,6.01-2.75,11.78-4.37,17.18-5.25-.29.45-.47.71-.49.73-.31.44-.28,1.03.06,1.44.23.28.57.43.91.43.17,0,.33-.03.49-.11,3.02-1.37,5.99-2.49,8.88-3.39,16.49-.18,27.58,5.99,27.73,6.08.55.33,1.24.17,1.59-.38,1.67-2.58,3.15-5.11,4.48-7.6,9.6,1.87,15.49,5.17,15.61,5.23.55.32,1.25.15,1.59-.38,11.84-18.33,16.24-34.68,13.08-48.58ZM25.83,97.4c3.47-5.92,9.93-18.93,7.65-30.67-.95-4.89-3.33-9.05-7.1-12.33h15.22c2.21,3.09,3.72,6.58,4.48,10.48,1.92,9.91-1.2,20.82-4.83,29.28-4.68.24-9.86,1.16-15.41,3.24ZM37.45,106.83c4.47-7.36,14.16-25.85,10.95-42.4-1.33-6.94-4.82-12.73-10.38-17.25h21.52c2.77,3.52,4.63,7.57,5.52,12.13,3.2,16.54-6.79,35.67-11.34,43.29-5.11.67-10.56,1.98-16.27,4.23ZM89.83,107.88c-2.54-1.26-9.74-4.38-19.84-5.51,8.85-1.65,16.79-1.36,23.29-.34-1.06,1.92-2.2,3.86-3.45,5.84ZM111.52,105.12c-3.24-1.6-14.03-6.29-28.93-6.29-6.33,0-13.41.87-20.96,3.17-1.6.02-3.24.11-4.93.27,5.02-8.67,13.87-26.93,10.68-43.4-1.44-7.43-5.19-13.62-11.18-18.44h55.37c1.55,1.07,9.45,7.03,12.13,18.89,2.94,13.02-1.16,28.42-12.19,45.8Z"/>
      </g>
    </g>
  </g>
</svg>