<?xml version="1.0" encoding="UTF-8"?>
<svg id="Camada_2" data-name="Camada 2" xmlns="http://www.w3.org/2000/svg" xmlns:xlink="http://www.w3.org/1999/xlink" viewBox="0 0 185.45 74.12">
  <defs>
    <style>
      .cls-1 {
        fill: url(#Gradiente_sem_nome_120);
      }

      .cls-2 {
        fill: url(#Gradiente_sem_nome_186);
      }

      .cls-3 {
        fill: #9c8c6f;
      }

      .cls-4 {
        fill: #e9e9e9;
      }
    </style>
    <linearGradient id="Gradiente_sem_nome_186" data-name="Gradiente sem nome 186" x1="113.41" y1="26.87" x2="151.89" y2="-1.08" gradientUnits="userSpaceOnUse">
      <stop offset=".1" stop-color="#9c8c6f"/>
      <stop offset=".7" stop-color="#9c8c6f" stop-opacity="0"/>
      <stop offset="1" stop-color="#9c8c6f" stop-opacity="0"/>
    </linearGradient>
    <linearGradient id="Gradiente_sem_nome_120" data-name="Gradiente sem nome 120" x1="120.59" y1="28.94" x2="125.32" y2="25.5" gradientUnits="userSpaceOnUse">
      <stop offset=".05" stop-color="#b0a48f"/>
      <stop offset=".66" stop-color="#fcfcfb"/>
      <stop offset="1" stop-color="#fff"/>
    </linearGradient>
  </defs>
  <g id="Camada_1-2" data-name="Camada 1">
    <g>
      <path class="cls-3" d="M4.5,73.44c-.13,0-.2-.08-.2-.25v-1.05s0-.05.02-.11c.02-.06.07-.09.17-.09.57,0,1.1-.08,1.59-.25.49-.17.92-.39,1.29-.67.37-.28.66-.62.88-1.02.22-.4.32-.83.32-1.3v-25.39c0-.83-.08-1.49-.25-1.96-.17-.48-.41-.83-.74-1.07-.32-.24-.73-.39-1.22-.45-.49-.06-1.06-.09-1.71-.09h-1.12c-.18,0-.32-.1-.4-.31s-.12-.39-.12-.54c0-.08.02-.21.05-.38.03-.17.12-.27.27-.3h.16c.09,0,.25,0,.49-.01s.55-.02.94-.02c.39,0,.9-.02,1.54-.04.92-.02,1.9-.04,2.94-.08,1.04-.03,2.1-.07,3.16-.1,1.07-.03,2.12-.06,3.16-.09,1.04-.02,2.02-.04,2.94-.04h3.52c1.33,0,2.63.22,3.9.67,1.27.45,2.39,1.11,3.37,1.99.98.88,1.77,1.96,2.37,3.26.6,1.3.9,2.8.9,4.5,0,1.07-.16,2.09-.48,3.06s-.75,1.87-1.29,2.69c-.54.82-1.17,1.55-1.87,2.21-.71.66-1.45,1.21-2.22,1.66-.77.45-1.56.79-2.36,1.02-.7.18-1.36.27-1.97.27h-.27l-5.97-.3h-.2c-.12,0-.2.02-.25.05-.05.03-.08.07-.1.1-.02.03-.02.1-.02.2v9.4c0,.65.18,1.19.54,1.61s.82.76,1.4,1.01c.58.25,1.22.43,1.94.54.72.11,1.42.16,2.12.16.1,0,.16.02.18.08.02.05.02.09.02.12v1.1s-.01.07-.04.12c-.02.05-.08.08-.16.08H4.5ZM15.75,56.05c.02.13.05.25.11.36.06.11.18.17.36.19.07,0,.19,0,.36.02.17.02.38.03.61.05.23.02.49.03.76.05.27.02.55.02.81.02,1.12,0,2.1-.22,2.94-.67.84-.45,1.54-1.08,2.1-1.89.56-.81.97-1.77,1.25-2.87.27-1.11.41-2.33.41-3.66,0-2.75-.55-4.76-1.65-6.05-1.1-1.28-2.72-1.92-4.85-1.92-.23,0-.45,0-.65.01-.2,0-.4.02-.6.02-.2,0-.41.02-.64.02-.22,0-.48.02-.76.04-.1,0-.23.02-.39.06-.16.04-.24.15-.24.34v15.12l.05.75Z"/>
      <path class="cls-3" d="M32.02,73.44c-.13,0-.2-.08-.2-.25v-1.05s0-.05.02-.11c.02-.06.07-.09.17-.09.57,0,1.1-.08,1.59-.25.49-.17.92-.39,1.29-.67.37-.28.66-.62.88-1.02.22-.4.32-.83.32-1.3v-25.39c0-.83-.08-1.49-.25-1.96-.17-.48-.41-.83-.74-1.07-.32-.24-.73-.39-1.22-.45-.49-.06-1.06-.09-1.71-.09h-1.12c-.18,0-.32-.1-.4-.31s-.12-.39-.12-.54c0-.08.02-.21.05-.38.03-.17.12-.27.27-.3h.16c.09,0,.25,0,.49-.01s.55-.02.94-.02c.39,0,.9-.02,1.54-.04.92-.02,1.9-.04,2.94-.08,1.04-.03,2.1-.07,3.16-.1,1.07-.03,2.12-.06,3.16-.09,1.04-.02,2.02-.04,2.94-.04h3.52c1.33,0,2.63.22,3.9.67,1.27.45,2.39,1.11,3.37,1.99.98.88,1.77,1.96,2.37,3.26.6,1.3.9,2.8.9,4.5,0,1.07-.16,2.09-.48,3.06s-.75,1.87-1.29,2.69c-.54.82-1.17,1.55-1.87,2.21-.71.66-1.45,1.21-2.22,1.66-.77.45-1.56.79-2.36,1.02-.7.18-1.36.27-1.97.27h-.27l-5.97-.3h-.2c-.12,0-.2.02-.25.05-.05.03-.08.07-.1.1-.02.03-.02.1-.02.2v9.4c0,.65.18,1.19.54,1.61s.82.76,1.4,1.01c.58.25,1.22.43,1.94.54.72.11,1.42.16,2.12.16.1,0,.16.02.18.08.02.05.02.09.02.12v1.1s-.01.07-.04.12c-.02.05-.08.08-.16.08h-17.19ZM43.26,56.05c.02.13.05.25.11.36.06.11.18.17.36.19.07,0,.19,0,.36.02.17.02.38.03.61.05.23.02.49.03.76.05.27.02.55.02.81.02,1.12,0,2.1-.22,2.94-.67.84-.45,1.54-1.08,2.1-1.89.56-.81.97-1.77,1.25-2.87.27-1.11.41-2.33.41-3.66,0-2.75-.55-4.76-1.65-6.05-1.1-1.28-2.72-1.92-4.85-1.92-.23,0-.45,0-.65.01-.2,0-.4.02-.6.02-.2,0-.41.02-.64.02-.22,0-.48.02-.76.04-.1,0-.23.02-.39.06-.16.04-.24.15-.24.34v15.12l.05.75Z"/>
      <path class="cls-3" d="M60.91,55.53c0-1.68.23-3.3.67-4.85s1.08-3,1.9-4.36c.82-1.36,1.79-2.59,2.94-3.7,1.14-1.11,2.39-2.06,3.76-2.86,1.37-.8,2.83-1.42,4.39-1.85,1.56-.43,3.16-.65,4.81-.65.88,0,1.78.05,2.7.16.92.11,1.81.25,2.69.41.88.17,1.7.35,2.49.55.78.2,1.47.38,2.06.55s1.07.3,1.45.41c.38.11.59.16.64.16h.3c.13,0,.24-.01.31-.04s.14-.05.2-.09c.06-.03.12-.06.19-.09s.17-.04.3-.04h1s.09.01.16.04c.08.02.11.1.11.24v8.32c0,.18-.08.31-.24.37-.16.07-.3.1-.41.1-.15-.02-.28-.1-.4-.25-.12-.15-.22-.32-.32-.5s-.18-.36-.25-.52c-.07-.17-.11-.29-.12-.38-.42-1.3-1-2.4-1.76-3.29-.76-.89-1.65-1.62-2.67-2.19-1.02-.57-2.15-.97-3.37-1.22s-2.51-.38-3.86-.38c-2.32,0-4.25.43-5.8,1.27s-2.8,1.99-3.74,3.42c-.94,1.43-1.61,3.09-2,4.96-.39,1.87-.59,3.84-.59,5.91,0,1.42.14,2.81.42,4.17.28,1.37.69,2.66,1.21,3.89s1.16,2.35,1.91,3.37c.75,1.02,1.59,1.91,2.51,2.65.92.74,1.92,1.32,3,1.74,1.07.42,2.21.62,3.41.62,1.35,0,2.54-.15,3.56-.44s1.85-.86,2.49-1.71v-5.52c0-.72-.09-1.35-.26-1.91-.17-.56-.5-1.03-.96-1.41-.47-.38-1.1-.67-1.9-.88-.8-.2-1.82-.3-3.07-.3-.1,0-.17-.1-.21-.29-.04-.19-.06-.35-.06-.49,0-.08.02-.22.06-.42.04-.2.11-.3.21-.3h17.39c.13,0,.21.1.24.29.03.19.04.34.04.44,0,.08-.02.22-.05.4-.03.18-.11.31-.23.38-.45.18-.91.34-1.39.48-.48.13-.91.31-1.31.52-.4.22-.73.51-.99.89-.26.38-.39.89-.39,1.54v7.3c0,.13-.05.24-.16.33-.11.08-.28.17-.51.27-.93.45-1.99.87-3.17,1.27s-2.4.75-3.65,1.06c-1.25.31-2.49.55-3.72.74-1.23.18-2.36.27-3.37.27-2.58,0-5-.43-7.25-1.29-2.25-.86-4.22-2.09-5.9-3.7-1.68-1.61-3.01-3.56-3.97-5.86s-1.45-4.88-1.45-7.75Z"/>
      <g>
        <path class="cls-4" d="M141,71.69c-1.12-.03-1.98-.17-2.59-.42-.61-.25-1.04-.56-1.31-.92-.27-.33-.46-.67-.59-1.01s-.19-.73-.19-1.16v-24.74c0-.75.11-1.35.34-1.81.22-.46.52-.81.9-1.06.38-.25.8-.42,1.28-.51.47-.09.96-.14,1.46-.14.13,0,.2-.05.2-.15v-1.35s-.01-.08-.04-.12c-.03-.05-.08-.08-.16-.08h-16.67c-.12,0-.18.07-.18.2v1.35c0,.13.07.2.2.2.55.03,1.15.1,1.8.21.65.11,1.25.27,1.81.5.56.22,1.02.53,1.39.91.37.38.55.87.55,1.45v10.7c0,.17-.03.27-.07.33-.05.05-.16.07-.33.07h-17.44c-.17,0-.27-.02-.33-.07-.05-.05-.07-.16-.07-.33v-10.3c0-.75.11-1.35.32-1.81.22-.46.5-.81.85-1.06.35-.25.76-.42,1.22-.51.47-.09.95-.14,1.45-.14.13,0,.2-.05.2-.15v-1.35s-.01-.08-.04-.12c-.03-.05-.08-.08-.16-.08h-14.79c-.12,0-.17.07-.17.2v1.35c0,.13.07.2.2.2.57.03,1.08.11,1.55.23.47.12.87.3,1.2.54.33.24.59.55.77.94.18.38.27.86.27,1.42v25.04c0,.8-.14,1.43-.41,1.9-.27.47-.63.82-1.06,1.07s-.91.41-1.44.49c-.52.07-1.05.11-1.56.11-.08,0-.14.02-.16.08-.02.05-.04.09-.04.12v1.35s.01.07.04.12c.02.05.08.08.16.08h16.04c.08,0,.13-.02.15-.08.02-.05.03-.09.03-.12v-1.35s0-.08-.03-.12c-.02-.05-.07-.08-.17-.08-.57,0-1.12-.05-1.65-.15s-1-.27-1.41-.5-.74-.54-.99-.92c-.25-.38-.38-.86-.38-1.42v-11.05c0-.17.02-.27.07-.32s.16-.08.33-.08h17.44c.17,0,.28.02.33.08.05.05.07.16.07.32v10.8c0,.73-.24,1.31-.71,1.74-.48.42-1.05.75-1.72.97-.68.22-1.37.37-2.09.44s-1.32.1-1.82.1c-.08,0-.14.02-.16.08-.03.05-.04.09-.04.12v1.35s.01.07.04.12c.03.05.08.08.16.08h18.14c.13,0,.2-.07.2-.2v-1.35c0-.13-.07-.2-.2-.2Z"/>
        <path class="cls-4" d="M157.97,38.21h-14.77c-.13,0-.2.07-.2.2v1.35c0,.13.07.2.2.2.58,0,1.11.05,1.59.15s.88.27,1.2.5c.32.23.57.54.75.92s.26.86.26,1.42v25.17c0,.8-.09,1.43-.28,1.9-.18.47-.44.82-.77,1.07s-.74.41-1.21.49c-.47.07-1,.11-1.59.11-.08,0-.14.02-.16.08-.03.05-.04.09-.04.12v1.35s.01.07.04.12c.02.05.08.08.16.08h14.77c.1,0,.16-.02.17-.06.02-.04.03-.09.03-.14v-1.35c0-.13-.07-.2-.2-.2-.58,0-1.11-.05-1.59-.15s-.87-.27-1.2-.5-.58-.54-.75-.92-.26-.86-.26-1.42v-25.17c0-.8.09-1.43.28-1.9.18-.47.44-.82.77-1.07.33-.25.74-.41,1.21-.49.48-.07,1-.11,1.59-.11.08,0,.14-.02.16-.08.02-.05.04-.09.04-.12v-1.35s-.01-.08-.04-.12c-.03-.05-.08-.08-.16-.08Z"/>
        <path class="cls-4" d="M181.62,60.8c-.47-1.18-1.1-2.26-1.87-3.22-.78-.97-1.66-1.85-2.65-2.65s-2-1.55-3.02-2.26c-1.02-.71-2.03-1.4-3.02-2.09-.99-.68-1.87-1.39-2.65-2.11-.77-.73-1.4-1.5-1.87-2.32s-.71-1.75-.71-2.76c0-.7.12-1.3.36-1.8.24-.5.57-.91.99-1.24.42-.32.91-.56,1.47-.71s1.17-.23,1.83-.23c1.5,0,2.87.3,4.12.91,1.25.61,2.27,1.53,3.07,2.76.1.15.2.32.29.52.09.2.18.4.26.59.08.19.16.37.24.52.08.16.14.26.19.31.03.03.15.06.35.09s.35.04.45.04c.12,0,.28-.02.5-.05.22-.03.32-.09.32-.18l-.72-5.87c-.02-.1-.05-.21-.09-.34-.04-.12-.14-.19-.29-.19l-1.65.15c-.6-.15-1.21-.31-1.82-.49-.62-.18-1.23-.34-1.84-.49s-1.22-.28-1.85-.39c-.62-.11-1.25-.16-1.86-.16-.77,0-1.55.08-2.36.25-.81.17-1.6.41-2.39.74-.78.33-1.52.73-2.21,1.2-.69.48-1.3,1.01-1.81,1.61-.52.6-.93,1.27-1.24,2-.31.73-.46,1.52-.46,2.37,0,1.4.24,2.66.71,3.77.47,1.12,1.09,2.13,1.86,3.05.77.92,1.64,1.75,2.62,2.51s1.99,1.49,3.02,2.19c1.03.7,2.04,1.39,3.02,2.07.98.68,1.86,1.4,2.62,2.16.77.76,1.39,1.58,1.86,2.46.47.88.71,1.87.71,2.95,0,1.88-.5,3.25-1.49,4.1s-2.38,1.27-4.16,1.27c-1.05,0-1.98-.08-2.8-.25s-1.55-.44-2.2-.81c-.65-.37-1.23-.87-1.74-1.5-.51-.62-.98-1.4-1.41-2.31-.03-.12-.11-.31-.24-.57s-.28-.53-.45-.8c-.17-.27-.36-.5-.55-.7-.19-.2-.37-.3-.54-.3-.23,0-.43.11-.6.32-.17.22-.25.42-.25.6,0,.05,0,.14.01.26,0,.12.03.4.07.84.04.43.11,1.08.21,1.95s.24,2.08.42,3.65c.05.35.18.52.4.52l1.6-.25s.12-.02.23-.02c.28,0,.63.08,1.05.25.42.17.93.35,1.54.56.61.21,1.33.4,2.17.56.84.17,1.83.25,2.96.25.9,0,1.82-.09,2.76-.27.94-.18,1.86-.45,2.75-.81.89-.36,1.73-.8,2.51-1.34.78-.53,1.47-1.15,2.05-1.84.58-.69,1.05-1.46,1.39-2.31.34-.85.51-1.77.51-2.75,0-1.48-.24-2.82-.71-4Z"/>
      </g>
      <path class="cls-3" d="M.53,21.54l106.19-5.75c.35-.02.64.29.59.63-.3,2.08-.94,4.11-1.67,5.89-.09.21-.29.34-.52.34H.56c-.72,0-.75-1.07-.03-1.11Z"/>
      <path class="cls-3" d="M184.54,22.65h-29.74c-.63,0-1.08-.62-.87-1.21.59-1.65,1.02-3.21,1.31-4.68.1-.49.55-.81,1.04-.73l28.41,4.81c1.1.19.96,1.8-.15,1.8Z"/>
      <path class="cls-2" d="M144.88.5h-25c1.31.86,2.35,1.81,3.19,2.84h-10.84c1.38.91,2.45,1.94,3.28,3.04h-8.14c9.39,6.16,0,19.66,0,19.66,2.94-1.34,5.68-1.85,8.08-1.94-1.54,3.5-3.23,5.94-3.23,5.94,3-1.36,5.84-2.1,8.46-2.43-.49.81-.81,1.27-.81,1.27,1.34-.61,2.65-1.1,3.93-1.49,7.17-.09,11.94,2.65,11.94,2.65.78-1.22,1.47-2.38,2.06-3.51,4.39.81,7.06,2.35,7.06,2.35,13.13-20.34,0-28.39,0-28.39Z"/>
      <path class="cls-1" d="M125.47,26.93c-1.1.27-2.23.62-3.39,1.05-.72.26-1.45.56-2.19.9,0,0,.17-.25.47-.71.17-.28.4-.65.66-1.09,1.08-.13,2.12-.18,3.12-.18.45,0,.9.01,1.33.03Z"/>
      <path class="cls-4" d="M150.8,8.71c-1.35-5.93-5.49-8.52-5.66-8.63-.08-.05-.17-.07-.26-.07h-25c-.22,0-.42.15-.48.36-.06.21.02.44.2.56.88.58,1.65,1.23,2.34,1.93h-9.71c-.22,0-.42.14-.48.35-.06.21.02.44.21.56.96.63,1.79,1.35,2.49,2.13h-7.08c-.22,0-.41.14-.47.35-.07.22.02.44.2.56,2.06,1.36,3.33,3.19,3.77,5.47,1.18,6.09-3.85,13.42-3.91,13.5-.12.18-.11.43.03.6.1.12.24.18.39.18.06,0,.14-.01.2-.04,2.53-1.16,4.92-1.68,7.07-1.84-1.39,3-2.8,5.05-2.83,5.1-.13.18-.12.43.03.6.09.12.24.18.38.18.07,0,.14-.01.21-.04,2.53-1.16,4.96-1.84,7.23-2.21-.12.19-.2.3-.2.31-.13.19-.12.43.03.61.1.12.24.18.38.18.07,0,.14-.01.21-.04,1.27-.58,2.52-1.05,3.74-1.43,6.94-.08,11.61,2.52,11.67,2.56.23.14.52.07.67-.16.7-1.08,1.32-2.15,1.88-3.2,4.04.79,6.52,2.17,6.57,2.2.23.13.53.06.67-.16,4.98-7.72,6.84-14.6,5.5-20.45ZM108.64,24.98c1.46-2.49,4.18-7.97,3.22-12.91-.4-2.06-1.4-3.81-2.99-5.19h6.41c.93,1.3,1.57,2.77,1.88,4.41.81,4.17-.51,8.76-2.03,12.33-1.97.1-4.15.49-6.49,1.36ZM113.53,28.95c1.88-3.1,5.96-10.88,4.61-17.85-.56-2.92-2.03-5.36-4.37-7.26h9.06c1.16,1.48,1.95,3.18,2.32,5.11,1.35,6.96-2.86,15.02-4.77,18.22-2.15.28-4.45.83-6.85,1.78ZM135.58,29.39c-1.07-.53-4.1-1.84-8.35-2.32,3.73-.69,7.07-.57,9.8-.14-.44.81-.92,1.62-1.45,2.46ZM144.71,28.23c-1.36-.67-5.91-2.65-12.18-2.65-2.66,0-5.65.37-8.82,1.33-.67,0-1.37.05-2.07.11,2.11-3.65,5.84-11.33,4.5-18.27-.6-3.13-2.19-5.73-4.71-7.76h23.31c.65.45,3.98,2.96,5.11,7.95,1.24,5.48-.49,11.96-5.13,19.28Z"/>
    </g>
  </g>
</svg>